<?xml version="1.0" standalone="no"?>
<!DOCTYPE svg PUBLIC "-//W3C//DTD SVG 20010904//EN"
 "http://www.w3.org/TR/2001/REC-SVG-20010904/DTD/svg10.dtd">
<svg version="1.0" xmlns="http://www.w3.org/2000/svg"
 width="512.000000pt" height="512.000000pt" viewBox="0 0 512.000000 512.000000"
 preserveAspectRatio="xMidYMid meet">
<metadata>
Created by potrace 1.11, written by Peter Selinger 2001-2013
</metadata>
<g transform="translate(0.000000,512.000000) scale(0.100000,-0.100000)"
fill="#000000" stroke="none">
<path d="M1088 5052 c-19 -2 -29 -11 -35 -30 -7 -21 -10 -593 -4 -708 1 -14
11 -25 29 -32 18 -7 349 -11 967 -11 554 -1 973 -5 1021 -11 143 -18 294 -79
409 -167 124 -95 183 -196 220 -380 11 -54 14 -258 4 -318 -5 -33 -17 -82 -25
-110 -16 -49 -80 -185 -93 -195 -3 -3 -19 -25 -36 -49 -95 -139 -286 -243
-495 -268 -36 -4 -492 -7 -1015 -6 -822 2 -953 0 -970 -12 -19 -15 -19 -37
-19 -1340 0 -1018 3 -1328 12 -1337 9 -9 110 -12 397 -12 365 0 386 1 399 19
11 15 13 179 14 953 0 514 2 935 4 937 2 2 289 5 638 8 349 2 653 8 675 11 47
8 181 33 211 40 12 2 54 15 95 27 41 13 76 23 79 24 9 3 65 25 105 42 22 10
62 30 88 45 26 15 52 28 57 28 4 0 10 3 12 8 2 4 29 24 60 45 31 21 68 48 81
60 73 66 96 88 132 128 23 24 56 64 75 89 19 25 37 47 40 50 15 13 102 154
139 223 66 124 119 270 137 377 3 14 7 31 9 38 3 8 8 37 11 65 4 29 8 55 10
59 5 8 5 292 0 333 -2 17 -7 53 -10 81 -12 115 -65 300 -116 410 -16 36 -30
69 -30 73 0 5 -7 14 -15 21 -8 7 -13 16 -10 20 3 4 -2 13 -10 20 -8 7 -15 17
-15 22 0 15 -121 188 -131 188 -5 0 -9 5 -9 11 0 30 -208 204 -362 302 -50 32
-213 121 -213 117 0 -1 -13 4 -30 10 -125 48 -261 75 -500 97 -62 6 -1940 10
-1987 5z"/>
<path d="M5091 5037 c-8 -10 -11 -586 -11 -2111 0 -1863 2 -2100 15 -2126 9
-17 18 -30 20 -30 3 0 5 963 5 2140 0 1221 -4 2140 -9 2140 -5 0 -14 -6 -20
-13z"/>
</g>
</svg>
